<svg width="36" height="27" viewBox="0 0 36 27" fill="none" xmlns="http://www.w3.org/2000/svg">
<path d="M29.6674 2.23815C27.4348 1.20221 25.0407 0.438972 22.5375 0.00183374C22.4919 -0.00660289 22.4464 0.0144807 22.4229 0.0566488C22.115 0.610448 21.774 1.33292 21.5351 1.90079C18.8428 1.49318 16.1643 1.49318 13.5271 1.90079C13.2882 1.3203 12.9348 0.610448 12.6255 0.0566488C12.602 0.0158876 12.5565 -0.00519595 12.5109 0.00183374C10.0091 0.437575 7.61501 1.20081 5.38105 2.23815C5.36171 2.24658 5.34513 2.26065 5.33413 2.27891C0.793017 9.13967 -0.450985 15.8318 0.159281 22.4409C0.162042 22.4733 0.179991 22.5042 0.204844 22.5239C3.20094 24.7489 6.10317 26.0997 8.95151 26.9951C8.9971 27.0091 9.04539 26.9923 9.0744 26.9543C9.74818 26.0238 10.3488 25.0427 10.8638 24.011C10.8941 23.9506 10.8651 23.8789 10.803 23.855C9.85035 23.4895 8.94322 23.0439 8.07062 22.5379C8.0016 22.4972 7.99608 22.3973 8.05957 22.3495C8.2432 22.2104 8.42688 22.0656 8.60221 21.9194C8.63394 21.8927 8.67814 21.8871 8.71544 21.904C14.448 24.5508 20.6542 24.5508 26.3192 21.904C26.3565 21.8857 26.4007 21.8913 26.4338 21.918C26.6092 22.0642 26.7928 22.2104 26.9778 22.3495C27.0413 22.3973 27.0372 22.4972 26.9682 22.5379C26.0956 23.0538 25.1884 23.4895 24.2344 23.8536C24.1723 23.8775 24.1446 23.9506 24.175 24.011C24.701 25.0413 25.3016 26.0224 25.963 26.9529C25.9906 26.9923 26.0403 27.0091 26.0859 26.9951C28.948 26.0997 31.8502 24.7489 34.8463 22.5239C34.8726 22.5042 34.8892 22.4747 34.8919 22.4423C35.6223 14.8014 33.6686 8.16419 29.7129 2.28031C29.7033 2.26065 29.6867 2.24658 29.6674 2.23815ZM11.7198 18.4167C9.99392 18.4167 8.57182 16.8143 8.57182 14.8464C8.57182 12.8786 9.96634 11.2762 11.7198 11.2762C13.4871 11.2762 14.8954 12.8926 14.8678 14.8464C14.8678 16.8143 13.4733 18.4167 11.7198 18.4167ZM23.359 18.4167C21.6332 18.4167 20.2111 16.8143 20.2111 14.8464C20.2111 12.8786 21.6055 11.2762 23.359 11.2762C25.1263 11.2762 26.5346 12.8926 26.507 14.8464C26.507 16.8143 25.1263 18.4167 23.359 18.4167Z" fill="white"/>
</svg>
