<svg width="28" height="23" viewBox="0 0 28 23" fill="none" xmlns="http://www.w3.org/2000/svg">
<path d="M8.68388 22.4688C18.8783 22.4688 24.4557 14.0276 24.4557 6.70964C24.4557 6.47233 24.4505 6.22976 24.4399 5.99245C25.5249 5.20844 26.4612 4.23733 27.2049 3.12476C26.1944 3.57397 25.1215 3.86735 24.023 3.99487C25.1797 3.30207 26.0458 2.2137 26.4607 0.931533C25.3725 1.57592 24.1825 2.03048 22.9416 2.27573C22.1055 1.38805 21 0.800302 19.7961 0.603353C18.5921 0.406405 17.3568 0.611227 16.281 1.18615C15.2053 1.76108 14.349 2.67409 13.8447 3.78402C13.3403 4.89395 13.216 6.13899 13.4908 7.32663C11.2874 7.21615 9.13175 6.64421 7.16371 5.64791C5.19567 4.6516 3.45915 3.25316 2.06671 1.54325C1.359 2.76244 1.14244 4.20515 1.46104 5.57815C1.77965 6.95115 2.60951 8.15142 3.78196 8.93503C2.90175 8.90711 2.04083 8.67031 1.27031 8.24421V8.31276C1.26952 9.59221 1.7122 10.8325 2.52309 11.8227C3.33398 12.8129 4.46304 13.4919 5.71835 13.7444C4.90297 13.9673 4.0472 13.9998 3.21725 13.8393C3.57147 14.9397 4.26066 15.902 5.18863 16.5922C6.1166 17.2823 7.23705 17.6657 8.39361 17.6889C6.43012 19.23 4.00463 20.0659 1.50781 20.062C1.06501 20.0613 0.622659 20.0342 0.183105 19.9808C2.71961 21.6068 5.67025 22.4704 8.68388 22.4688Z" fill="white"/>
</svg>
